<mxfile host="app.diagrams.net" agent="Mozilla/5.0 (Windows NT 10.0; Win64; x64) AppleWebKit/537.36 (KHTML, like Gecko) Chrome/132.0.0.0 Safari/537.36 OPR/117.0.0.0" version="26.2.5">
  <diagram name="Страница — 1" id="Bs9hl7EJvzK3aSVxohyI">
    <mxGraphModel dx="1059" dy="478" grid="1" gridSize="10" guides="1" tooltips="1" connect="1" arrows="1" fold="1" page="1" pageScale="1" pageWidth="827" pageHeight="1169" math="0" shadow="0">
      <root>
        <mxCell id="0" />
        <mxCell id="1" parent="0" />
        <mxCell id="p0av2jwLTRedCg7sPQxk-1" value="" style="ellipse;whiteSpace=wrap;html=1;" vertex="1" parent="1">
          <mxGeometry x="450" y="280" width="50" height="50" as="geometry" />
        </mxCell>
        <mxCell id="p0av2jwLTRedCg7sPQxk-2" value="X" style="ellipse;whiteSpace=wrap;html=1;" vertex="1" parent="1">
          <mxGeometry x="455" y="285" width="40" height="40" as="geometry" />
        </mxCell>
        <mxCell id="p0av2jwLTRedCg7sPQxk-53" style="edgeStyle=orthogonalEdgeStyle;rounded=0;orthogonalLoop=1;jettySize=auto;html=1;entryX=0.5;entryY=1;entryDx=0;entryDy=0;" edge="1" parent="1" source="p0av2jwLTRedCg7sPQxk-3" target="p0av2jwLTRedCg7sPQxk-1">
          <mxGeometry relative="1" as="geometry" />
        </mxCell>
        <mxCell id="p0av2jwLTRedCg7sPQxk-3" value="D" style="ellipse;whiteSpace=wrap;html=1;" vertex="1" parent="1">
          <mxGeometry x="340" y="360" width="50" height="50" as="geometry" />
        </mxCell>
        <mxCell id="p0av2jwLTRedCg7sPQxk-19" style="edgeStyle=orthogonalEdgeStyle;rounded=0;orthogonalLoop=1;jettySize=auto;html=1;entryX=0;entryY=0.5;entryDx=0;entryDy=0;" edge="1" parent="1" source="p0av2jwLTRedCg7sPQxk-4" target="p0av2jwLTRedCg7sPQxk-3">
          <mxGeometry relative="1" as="geometry" />
        </mxCell>
        <mxCell id="p0av2jwLTRedCg7sPQxk-4" value="A" style="ellipse;whiteSpace=wrap;html=1;" vertex="1" parent="1">
          <mxGeometry x="220" y="360" width="50" height="50" as="geometry" />
        </mxCell>
        <mxCell id="p0av2jwLTRedCg7sPQxk-17" style="edgeStyle=orthogonalEdgeStyle;rounded=0;orthogonalLoop=1;jettySize=auto;html=1;exitX=0.5;exitY=0;exitDx=0;exitDy=0;entryX=0.5;entryY=1;entryDx=0;entryDy=0;" edge="1" parent="1" source="p0av2jwLTRedCg7sPQxk-6" target="p0av2jwLTRedCg7sPQxk-9">
          <mxGeometry relative="1" as="geometry" />
        </mxCell>
        <mxCell id="p0av2jwLTRedCg7sPQxk-18" style="edgeStyle=orthogonalEdgeStyle;rounded=0;orthogonalLoop=1;jettySize=auto;html=1;entryX=0.5;entryY=0;entryDx=0;entryDy=0;" edge="1" parent="1" source="p0av2jwLTRedCg7sPQxk-6" target="p0av2jwLTRedCg7sPQxk-4">
          <mxGeometry relative="1" as="geometry" />
        </mxCell>
        <mxCell id="p0av2jwLTRedCg7sPQxk-6" value="S" style="ellipse;whiteSpace=wrap;html=1;" vertex="1" parent="1">
          <mxGeometry x="220" y="280" width="50" height="50" as="geometry" />
        </mxCell>
        <mxCell id="p0av2jwLTRedCg7sPQxk-54" style="edgeStyle=orthogonalEdgeStyle;rounded=0;orthogonalLoop=1;jettySize=auto;html=1;entryX=0.5;entryY=0;entryDx=0;entryDy=0;" edge="1" parent="1" source="p0av2jwLTRedCg7sPQxk-8" target="p0av2jwLTRedCg7sPQxk-1">
          <mxGeometry relative="1" as="geometry" />
        </mxCell>
        <mxCell id="p0av2jwLTRedCg7sPQxk-8" value="E" style="ellipse;whiteSpace=wrap;html=1;" vertex="1" parent="1">
          <mxGeometry x="340" y="200" width="50" height="50" as="geometry" />
        </mxCell>
        <mxCell id="p0av2jwLTRedCg7sPQxk-15" style="edgeStyle=orthogonalEdgeStyle;rounded=0;orthogonalLoop=1;jettySize=auto;html=1;entryX=0;entryY=0.5;entryDx=0;entryDy=0;" edge="1" parent="1" source="p0av2jwLTRedCg7sPQxk-9" target="p0av2jwLTRedCg7sPQxk-8">
          <mxGeometry relative="1" as="geometry" />
        </mxCell>
        <mxCell id="p0av2jwLTRedCg7sPQxk-9" value="С" style="ellipse;whiteSpace=wrap;html=1;" vertex="1" parent="1">
          <mxGeometry x="220" y="200" width="50" height="50" as="geometry" />
        </mxCell>
        <mxCell id="p0av2jwLTRedCg7sPQxk-13" value="" style="endArrow=classic;html=1;rounded=0;entryX=0;entryY=0.5;entryDx=0;entryDy=0;" edge="1" parent="1" target="p0av2jwLTRedCg7sPQxk-6">
          <mxGeometry width="50" height="50" relative="1" as="geometry">
            <mxPoint x="160" y="305" as="sourcePoint" />
            <mxPoint x="220" y="300" as="targetPoint" />
          </mxGeometry>
        </mxCell>
        <mxCell id="p0av2jwLTRedCg7sPQxk-31" value="" style="curved=1;endArrow=classic;html=1;rounded=0;entryX=0;entryY=0;entryDx=0;entryDy=0;exitX=0;exitY=0;exitDx=0;exitDy=0;" edge="1" parent="1" source="p0av2jwLTRedCg7sPQxk-3" target="p0av2jwLTRedCg7sPQxk-3">
          <mxGeometry width="50" height="50" relative="1" as="geometry">
            <mxPoint x="310" y="374" as="sourcePoint" />
            <mxPoint x="210" y="350" as="targetPoint" />
            <Array as="points">
              <mxPoint x="330" y="360" />
              <mxPoint x="330" y="350" />
              <mxPoint x="370" y="340" />
            </Array>
          </mxGeometry>
        </mxCell>
        <mxCell id="p0av2jwLTRedCg7sPQxk-46" value="{" style="edgeLabel;html=1;align=center;verticalAlign=middle;resizable=0;points=[];" vertex="1" connectable="0" parent="p0av2jwLTRedCg7sPQxk-31">
          <mxGeometry x="0.17" y="-2" relative="1" as="geometry">
            <mxPoint as="offset" />
          </mxGeometry>
        </mxCell>
        <mxCell id="p0av2jwLTRedCg7sPQxk-32" value="" style="curved=1;endArrow=classic;html=1;rounded=0;exitX=0.26;exitY=1;exitDx=0;exitDy=0;entryX=0.24;entryY=1;entryDx=0;entryDy=0;entryPerimeter=0;exitPerimeter=0;" edge="1" parent="1" source="p0av2jwLTRedCg7sPQxk-8" target="p0av2jwLTRedCg7sPQxk-8">
          <mxGeometry width="50" height="50" relative="1" as="geometry">
            <mxPoint x="280" y="310" as="sourcePoint" />
            <mxPoint x="330" y="260" as="targetPoint" />
            <Array as="points">
              <mxPoint x="380" y="280" />
              <mxPoint x="320" y="270" />
            </Array>
          </mxGeometry>
        </mxCell>
        <mxCell id="p0av2jwLTRedCg7sPQxk-36" value="}" style="edgeLabel;html=1;align=center;verticalAlign=middle;resizable=0;points=[];" vertex="1" connectable="0" parent="p0av2jwLTRedCg7sPQxk-32">
          <mxGeometry x="0.5753" y="-7" relative="1" as="geometry">
            <mxPoint as="offset" />
          </mxGeometry>
        </mxCell>
        <mxCell id="p0av2jwLTRedCg7sPQxk-55" value="{" style="text;html=1;align=center;verticalAlign=middle;resizable=0;points=[];autosize=1;strokeColor=none;fillColor=none;" vertex="1" parent="1">
          <mxGeometry x="215" y="328" width="30" height="30" as="geometry" />
        </mxCell>
        <mxCell id="p0av2jwLTRedCg7sPQxk-56" value="[" style="text;html=1;align=center;verticalAlign=middle;resizable=0;points=[];autosize=1;strokeColor=none;fillColor=none;" vertex="1" parent="1">
          <mxGeometry x="215" y="248" width="30" height="30" as="geometry" />
        </mxCell>
        <mxCell id="p0av2jwLTRedCg7sPQxk-57" value="{" style="text;html=1;align=center;verticalAlign=middle;resizable=0;points=[];autosize=1;strokeColor=none;fillColor=none;" vertex="1" parent="1">
          <mxGeometry x="285" y="388" width="30" height="30" as="geometry" />
        </mxCell>
        <mxCell id="p0av2jwLTRedCg7sPQxk-58" value="{" style="text;html=1;align=center;verticalAlign=middle;resizable=0;points=[];autosize=1;strokeColor=none;fillColor=none;" vertex="1" parent="1">
          <mxGeometry x="285" y="188" width="30" height="30" as="geometry" />
        </mxCell>
        <mxCell id="p0av2jwLTRedCg7sPQxk-59" value="]" style="text;html=1;align=center;verticalAlign=middle;resizable=0;points=[];autosize=1;strokeColor=none;fillColor=none;" vertex="1" parent="1">
          <mxGeometry x="445" y="198" width="30" height="30" as="geometry" />
        </mxCell>
        <mxCell id="p0av2jwLTRedCg7sPQxk-60" value="]" style="text;html=1;align=center;verticalAlign=middle;resizable=0;points=[];autosize=1;strokeColor=none;fillColor=none;" vertex="1" parent="1">
          <mxGeometry x="445" y="378" width="30" height="30" as="geometry" />
        </mxCell>
        <mxCell id="p0av2jwLTRedCg7sPQxk-61" value="" style="curved=1;endArrow=classic;html=1;rounded=0;exitX=1.04;exitY=0.66;exitDx=0;exitDy=0;exitPerimeter=0;" edge="1" parent="1" source="p0av2jwLTRedCg7sPQxk-1">
          <mxGeometry width="50" height="50" relative="1" as="geometry">
            <mxPoint x="510" y="350" as="sourcePoint" />
            <mxPoint x="500" y="313" as="targetPoint" />
            <Array as="points">
              <mxPoint x="530" y="313" />
              <mxPoint x="520" y="305" />
              <mxPoint x="510" y="300" />
            </Array>
          </mxGeometry>
        </mxCell>
        <mxCell id="p0av2jwLTRedCg7sPQxk-62" value="_|_" style="text;html=1;align=center;verticalAlign=middle;resizable=0;points=[];autosize=1;strokeColor=none;fillColor=none;" vertex="1" parent="1">
          <mxGeometry x="510" y="280" width="40" height="30" as="geometry" />
        </mxCell>
      </root>
    </mxGraphModel>
  </diagram>
</mxfile>
